<svg width="800" height="800" viewBox="0 0 800 800" fill="none" xmlns="http://www.w3.org/2000/svg">
<path d="M280.046 539.957C269.442 539.957 259.272 535.745 251.773 528.247C244.275 520.748 240.062 510.578 240.062 499.974V420.007C240.062 409.403 244.275 399.233 251.773 391.734C259.272 384.236 269.442 380.023 280.046 380.023C290.65 380.023 300.82 384.236 308.319 391.734C315.817 399.233 320.03 409.403 320.03 420.007V499.974C320.03 510.578 315.817 520.748 308.319 528.247C300.82 535.745 290.65 539.957 280.046 539.957Z" fill="black"/>
<path d="M519.944 539.957C509.34 539.957 499.17 535.745 491.672 528.247C484.173 520.748 479.961 510.578 479.961 499.974V420.007C479.961 409.403 484.173 399.233 491.672 391.734C499.17 384.236 509.34 380.023 519.944 380.023C530.549 380.023 540.719 384.236 548.217 391.734C555.715 399.233 559.928 409.403 559.928 420.007V499.974C559.928 510.578 555.715 520.748 548.217 528.247C540.719 535.745 530.549 539.957 519.944 539.957Z" fill="black"/>
<path d="M160.098 260.081C154.836 260.112 149.619 259.103 144.748 257.113C139.876 255.123 135.445 252.192 131.709 248.486L11.7588 128.535C4.22977 121.006 0 110.795 0 100.147C0 94.8749 1.03843 89.6543 3.05601 84.7835C5.07359 79.9126 8.03081 75.4868 11.7588 71.7588C15.4868 68.0308 19.9126 65.0736 24.7835 63.056C29.6543 61.0384 34.8749 60 40.1471 60C50.7948 60 61.0064 64.2298 68.5354 71.7588L188.486 191.709C192.234 195.426 195.208 199.849 197.238 204.721C199.268 209.593 200.313 214.819 200.313 220.098C200.313 225.376 199.268 230.602 197.238 235.474C195.208 240.347 192.234 244.769 188.486 248.486C184.75 252.192 180.319 255.123 175.448 257.113C170.576 259.103 165.36 260.112 160.098 260.081Z" fill="black"/>
<path d="M639.903 260.081C634.641 260.112 629.424 259.103 624.553 257.113C619.681 255.123 615.251 252.192 611.515 248.486C607.767 244.769 604.792 240.347 602.762 235.474C600.733 230.602 599.688 225.376 599.688 220.098C599.688 214.819 600.733 209.593 602.762 204.721C604.792 199.849 607.767 195.426 611.515 191.709L731.465 71.7588C738.994 64.2298 749.206 60 759.853 60C770.501 60 780.713 64.2298 788.242 71.7588C795.771 79.2879 800 89.4994 800 100.147C800 110.795 795.771 121.006 788.242 128.535L668.291 248.486C664.555 252.192 660.124 255.123 655.253 257.113C650.381 259.103 645.165 260.112 639.903 260.081Z" fill="black"/>
<path d="M759.843 739.877H40.1398C29.5355 739.877 19.3655 735.665 11.8671 728.166C4.36878 720.668 0.15625 710.498 0.15625 699.894V519.968C0.15625 413.925 42.2816 312.225 117.265 237.242C192.249 162.258 293.948 120.133 399.991 120.133C506.034 120.133 607.734 162.258 682.717 237.242C757.701 312.225 799.826 413.925 799.826 519.968V699.894C799.826 710.498 795.614 720.668 788.115 728.166C780.617 735.665 770.447 739.877 759.843 739.877ZM80.1233 659.91H719.859V519.968C719.859 435.134 686.159 353.774 626.172 293.787C566.185 233.8 484.826 200.1 399.991 200.1C315.157 200.1 233.797 233.8 173.81 293.787C113.824 353.774 80.1233 435.134 80.1233 519.968V659.91Z" fill="black"/>
</svg>
